<svg width="47" height="47" viewBox="0 0 47 47" xmlns="http://www.w3.org/2000/svg"><title>PB Mark</title><desc>Created with Sketch.</desc><g fill="#fff"><path d="M23.432.5c-12.938 0-23.432 10.34-23.432 23.092 0 12.747 10.494 23.085 23.432 23.085 12.945 0 23.434-10.338 23.434-23.085-.001-12.753-10.49-23.092-23.434-23.092zm0 45.645c-12.64 0-22.889-10.1-22.889-22.556 0-12.459 10.249-22.556 22.889-22.556 12.642 0 22.893 10.097 22.893 22.556 0 12.456-10.251 22.556-22.893 22.556zm-1.263-42.278c0-.241.128-.384.331-.384.322-.013.61-.021.931-.021 11.28 0 20.427 9.004 20.427 20.126 0 11.116-9.147 20.127-20.427 20.127-11.276 0-20.423-9.011-20.423-20.127 0-8.672 5.556-16.052 13.352-18.888.189-.073.362.026.439.242.083.214.021.4-.175.473-7.495 2.73-12.841 9.834-12.841 18.172 0 10.695 8.797 19.363 19.648 19.363 10.854 0 19.651-8.668 19.651-19.363 0-10.703-8.797-19.369-19.651-19.369-.311 0-.627.007-.938.019-.205.001-.325-.143-.325-.37zm.688 32.001l.576.008c6.888 0 12.468-5.499 12.468-12.285 0-6.786-5.581-12.287-12.468-12.287l-.576.008c-.434 0-.688-.316-.688-.805 0-.492.254-.806.688-.806l.576-.009c7.79 0 14.106 6.22 14.106 13.898 0 7.675-6.315 13.896-14.106 13.896l-.576-.012c-.434 0-.688-.319-.688-.804 0-.492.254-.804.688-.804zm.576 3.632c8.919 0 16.146-7.123 16.146-15.908 0-8.791-7.227-15.915-16.146-15.915l-.733.013c-.331 0-.531-.239-.531-.62 0-.383.199-.621.531-.621l.733-.012c9.617 0 17.411 7.676 17.411 17.156 0 9.472-7.794 17.153-17.411 17.153l-.733-.016c-.333 0-.531-.236-.531-.621 0-.381.197-.62.531-.62l.733.011zm-6.875-1.51c.301.141.348.447.187.786-.164.341-.424.479-.724.339-5.909-2.74-9.995-8.67-9.995-15.523 0-6.859 4.08-12.77 9.974-15.518.301-.134.588-.001.748.335.164.35.09.654-.211.79-5.47 2.544-9.245 8.032-9.251 14.393-.003 6.353 3.79 11.847 9.272 14.399zm-.026-4.167c.36.238.399.639.122 1.048-.273.406-.667.53-1.027.29-3.942-2.584-6.295-6.912-6.295-11.57 0-4.66 2.353-8.993 6.295-11.574.358-.241.755-.112 1.029.295.275.406.236.811-.124 1.044-3.484 2.286-5.568 6.112-5.568 10.236 0 4.117 2.084 7.948 5.568 10.232zm-1.438-4.114c-1.308-1.732-2.059-3.846-2.059-6.115 0-2.21.714-4.338 2.056-6.121.315-.405.814-.421 1.287-.061.475.349.594.826.283 1.235-1.084 1.437-1.658 3.146-1.658 4.946 0 1.798.578 3.505 1.662 4.942.309.406.189.881-.285 1.235-.474.358-.974.348-1.287-.061z" opacity=".7"/><path d="M19.639 16.103c-.875.242-1.442-.389-1.442-1.069v-10.483c0-.645.482-1.019 1.224-1.019s1.219.373 1.219 1.019v8.762c.867-.223 1.775-.346 2.711-.346 5.886 0 10.656 4.705 10.656 10.506 0 5.798-4.77 10.497-10.656 10.497l-.228-.008c-.649 0-1.038-.475-1.038-1.211 0-.73.388-1.205 1.038-1.205l.228.004c4.461 0 8.187-3.554 8.187-8.096 0-4.599-3.81-8.108-8.126-8.108-2.085 0-2.892.509-3.773.756zm8.305 2.822c-1.224-1.209-2.856-1.868-4.591-1.868-2.349 0-5.006 1.184-5.147 2.279-.022.17-.008 1.146-.008 1.146v18.67c0 .726.478 1.068 1.222 1.068.697 0 1.221-.322 1.221-1.068v-18.797c.72-.639 1.671-.902 2.711-.902 2.238 0 4.056 1.796 4.056 4 0 2.201-1.819 3.995-4.056 3.995l-.238.004c-.643 0-1.027.467-1.027 1.199 0 .721.384 1.194 1.027 1.194l.238.01c1.737 0 3.369-.667 4.593-1.88 1.227-1.211 1.905-2.816 1.905-4.521-.001-1.708-.679-3.32-1.905-4.53z"/></g></svg>